<?xml version="1.0" encoding="UTF-8" standalone="no"?>
<!-- Created with Inkscape (http://www.inkscape.org/) -->

<svg
   width="28.150002mm"
   height="27.884262mm"
   viewBox="0 0 28.150002 27.884262"
   version="1.1"
   id="svg5"
   xml:space="preserve"
   inkscape:version="1.2.2 (732a01da63, 2022-12-09, custom)"
   sodipodi:docname="logo"
   inkscape:export-filename="../d683214d/favicon.svg"
   inkscape:export-xdpi="96"
   inkscape:export-ydpi="96"
   xmlns:inkscape="http://www.inkscape.org/namespaces/inkscape"
   xmlns:sodipodi="http://sodipodi.sourceforge.net/DTD/sodipodi-0.dtd"
   xmlns="http://www.w3.org/2000/svg"
   xmlns:svg="http://www.w3.org/2000/svg"><sodipodi:namedview
     id="namedview7"
     pagecolor="#ffffff"
     bordercolor="#000000"
     borderopacity="0.25"
     inkscape:showpageshadow="2"
     inkscape:pageopacity="0.0"
     inkscape:pagecheckerboard="0"
     inkscape:deskcolor="#d1d1d1"
     inkscape:document-units="mm"
     showgrid="false"
     inkscape:zoom="1.1988726"
     inkscape:cx="313.21093"
     inkscape:cy="643.52125"
     inkscape:window-width="1366"
     inkscape:window-height="704"
     inkscape:window-x="0"
     inkscape:window-y="0"
     inkscape:window-maximized="1"
     inkscape:current-layer="layer1" /><defs
     id="defs2" /><g
     inkscape:label="Layer 1"
     inkscape:groupmode="layer"
     id="layer1"
     transform="translate(-64.06611,-225.06744)"><g
       id="g1419"><g
         id="g5700"
         transform="matrix(0.35385712,0,0,0.35385712,50.490322,154.43433)"><rect
           style="fill:#111111;fill-opacity:1;stroke-width:0.788008"
           id="rect4325"
           width="79.551865"
           height="78.800888"
           x="38.365177"
           y="199.60912"
           ry="7.8800888"
           rx="7.8800888" /><path
           d="m 64.447777,213.50471 c 2.318206,-1.80306 5.359674,-2.80564 8.385111,-2.80564 1.762081,0 3.175235,0.60248 4.244346,1.55283 0.41627,0.36998 0.76732,0.78066 1.063873,1.20776 0.296553,-0.4271 0.647603,-0.83778 1.063767,-1.20776 1.069075,-0.95035 2.482477,-1.55283 4.244452,-1.55283 3.025331,0 6.066941,1.00258 8.385217,2.80564 1.857877,1.44504 3.289681,3.44372 3.79927,5.85946 1.16073,0.0907 2.220958,0.57261 3.112736,1.29577 1.353601,1.09742 2.335271,2.74222 2.957391,4.48396 0.9668,2.70708 1.23151,6.1558 0.22365,9.09729 0.25798,0.11948 0.50818,0.25951 0.75023,0.42084 0.97459,0.64966 1.71279,1.57693 2.25989,2.67152 1.06978,2.13925 1.5139,5.12459 1.5139,8.75364 0,4.03885 -1.54044,6.74746 -3.49316,8.42096 -1.22089,1.04678 -2.57413,1.66289 -3.730621,1.9644 -0.35353,1.97501 -1.343332,4.26179 -2.895809,6.20212 -2.022077,2.52777 -5.147203,4.6454 -9.343881,4.6454 -3.329669,0 -5.972808,-1.84124 -7.694087,-3.64427 -0.429258,-0.44978 -0.814634,-0.91054 -1.152945,-1.36209 -0.33824,0.45155 -0.723652,0.91231 -1.153016,1.36209 -1.721031,1.80303 -4.364312,3.64427 -7.694016,3.64427 -4.196572,0 -7.32191,-2.11763 -9.343987,-4.6454 -1.552301,-1.94033 -2.542071,-4.22711 -2.895846,-6.20212 -1.156201,-0.30151 -2.509443,-0.91762 -3.730475,-1.9644 -1.952646,-1.6735 -3.493162,-4.38211 -3.493162,-8.42096 0,-3.62905 0.444298,-6.61439 1.513868,-8.75364 0.547278,-1.09459 1.285439,-2.02186 2.259922,-2.67152 0.242019,-0.16133 0.492425,-0.30136 0.750122,-0.42084 -1.007606,-2.94149 -0.742939,-6.39021 0.223865,-9.09729 0.622053,-1.74174 1.603755,-3.38654 2.957244,-4.48396 0.891852,-0.72316 1.951974,-1.20507 3.112846,-1.29577 0.509342,-2.41574 1.941393,-4.41442 3.799305,-5.85946 z m 11.923924,6.04362 -7.44e-4,-0.0375 c -9.2e-4,-0.0362 -0.0029,-0.0954 -0.0071,-0.17421 -0.0085,-0.15819 -0.0259,-0.39253 -0.06147,-0.67694 -0.07223,-0.57803 -0.213851,-1.31719 -0.481562,-2.03114 -0.270507,-0.72128 -0.634332,-1.32253 -1.094661,-1.73175 -0.423844,-0.37671 -1.001272,-0.65893 -1.8933,-0.65893 -2.282782,0 -4.549533,0.76682 -6.212492,2.06022 -1.643779,1.27847 -2.63454,3.00778 -2.63454,5.0174 0,0.56876 -0.273409,1.10288 -0.734799,1.43542 -0.461426,0.33257 -1.054567,0.42306 -1.594129,0.24318 -0.663846,-0.22128 -1.260348,-0.098 -1.892557,0.41461 -0.692404,0.5614 -1.369521,1.5707 -1.853347,2.92543 -0.988391,2.76753 -0.889269,6.11705 0.469458,8.15513 0.197325,0.29602 0.297119,0.63815 0.297155,0.98138 h 2.654109 c 4.397471,0 7.962329,3.56475 7.962329,7.96243 v 1.18692 c 2.061712,0.72864 3.538813,2.69481 3.538813,5.00601 0,2.93155 -2.376561,5.30822 -5.308219,5.30822 -2.931659,0 -5.30822,-2.37667 -5.30822,-5.30822 0,-2.3112 1.477101,-4.27737 3.538813,-5.00601 v -1.18692 c 0,-2.44319 -1.980461,-4.42362 -4.423516,-4.42362 H 55.1388 c -0.218097,0 -0.426993,-0.0395 -0.619929,-0.11165 -0.0031,0.006 -0.0062,0.0122 -0.0092,0.0184 -0.699835,1.39956 -1.140241,3.72244 -1.140241,7.17101 0,3.03878 1.113594,4.75369 2.257409,5.7343 1.228287,1.05279 2.589456,1.34333 3.050811,1.34333 0.977207,0 1.769406,0.79234 1.769406,1.76941 0,1.30369 0.704825,3.57809 2.266362,5.5301 1.516735,1.89574 3.699616,3.31693 6.58067,3.31693 1.978515,0 3.75875,-1.108 5.13418,-2.54866 0.673543,-0.70563 1.197782,-1.43958 1.544338,-2.04012 0.173614,-0.30115 0.290254,-0.5471 0.358022,-0.7205 0.01985,-0.051 0.03284,-0.0885 0.04109,-0.11431 v -28.19513 h -3.840851 c -0.728712,2.06171 -2.694947,3.53881 -5.006181,3.53881 -2.931659,0 -5.30822,-2.37656 -5.30822,-5.30822 0,-2.93166 2.376561,-5.30822 5.30822,-5.30822 2.311234,0 4.277469,1.4771 5.006181,3.53881 h 3.840851 z m 3.538812,35.3859 v 3.42344 c 0.0081,0.0258 0.02123,0.0633 0.04105,0.11431 0.06795,0.1734 0.184372,0.41935 0.358127,0.7205 0.34645,0.60054 0.870902,1.33449 1.544338,2.04012 1.375183,1.44066 3.15556,2.54866 5.13411,2.54866 2.880948,0 5.064041,-1.42119 6.580776,-3.31693 1.561324,-1.95201 2.266256,-4.22641 2.266256,-5.5301 0,-0.97707 0.79234,-1.76941 1.769406,-1.76941 0.461462,0 1.822493,-0.29054 3.050814,-1.34333 1.14374,-0.98061 2.25741,-2.69552 2.25741,-5.7343 0,-3.44857 -0.44058,-5.77145 -1.14021,-7.17101 -0.3376,-0.67482 -0.70528,-1.0746 -1.05775,-1.30965 -0.34149,-0.22768 -0.765801,-0.36637 -1.340861,-0.36637 -0.65255,0 -1.252028,-0.35915 -1.559905,-0.93449 -0.307877,-0.57534 -0.274258,-1.27344 0.08776,-1.8164 1.358555,-2.03808 1.457645,-5.3876 0.469255,-8.15513 -0.483764,-1.35473 -1.160739,-2.36403 -1.853285,-2.92543 -0.632032,-0.5126 -1.228676,-0.63589 -1.892557,-0.41461 -0.539669,0.17988 -1.132774,0.0894 -1.594235,-0.24318 -0.461108,-0.33254 -0.734658,-0.86666 -0.734658,-1.43542 0,-2.00962 -0.990867,-3.73893 -2.634646,-5.0174 -1.662888,-1.2934 -3.929498,-2.06022 -6.212386,-2.06022 -0.892135,0 -1.469315,0.28222 -1.893265,0.65893 -0.460399,0.40922 -0.824189,1.01047 -1.094554,1.73175 -0.267889,0.71395 -0.409441,1.45311 -0.481633,2.03114 -0.03574,0.28441 -0.05308,0.51875 -0.06158,0.67694 -0.0042,0.0788 -0.006,0.13801 -0.0071,0.17421 l -7.08e-4,0.0395 v 31.8451 h 2.65411 c 2.443196,0 4.423516,-1.98032 4.423516,-4.42351 v -6.49514 c -2.061712,-0.72864 -3.538813,-2.69477 -3.538813,-5.006 0,-2.93166 2.376667,-5.30822 5.308219,-5.30822 2.931553,0 5.30822,2.37656 5.30822,5.30822 0,2.31123 -1.477101,4.27736 -3.538813,5.006 v 6.49514 c 0,4.39733 -3.565,7.96233 -7.962329,7.96233 z m -14.155251,-26.5411 c 0,0.97721 0.792199,1.76941 1.769407,1.76941 0.977207,0 1.769406,-0.7922 1.769406,-1.76941 0,-0.97721 -0.792199,-1.76941 -1.769406,-1.76941 -0.977208,0 -1.769407,0.7922 -1.769407,1.76941 z m 23.002283,8.84703 c 0.977067,0 1.769407,-0.7922 1.769407,-1.7694 0,-0.97721 -0.79234,-1.76941 -1.769407,-1.76941 -0.977066,0 -1.769406,0.7922 -1.769406,1.76941 0,0.9772 0.79234,1.7694 1.769406,1.7694 z M 67.524669,247.8566 c -0.977208,0 -1.769407,0.79234 -1.769407,1.76941 0,0.97706 0.792199,1.7694 1.769407,1.7694 0.977207,0 1.769406,-0.79234 1.769406,-1.7694 0,-0.97707 -0.792199,-1.76941 -1.769406,-1.76941 z"
           fill="#212121"
           id="path4327"
           style="fill:#b5e7ec;fill-opacity:1;stroke-width:3.53881" /></g></g></g></svg>
