<?xml version="1.0" encoding="UTF-8" standalone="no"?>
<!-- Created with Inkscape (http://www.inkscape.org/) -->

<svg
   width="135mm"
   height="32mm"
   viewBox="0 0 135 32"
   version="1.1"
   id="svg5"
   xml:space="preserve"
   inkscape:version="1.2.2 (732a01da63, 2022-12-09, custom)"
   sodipodi:docname="logo.svg"
   inkscape:export-filename="../../../../../home/dev/Development/Web Dev/Portfolio-Project/code/assets/logo.png"
   inkscape:export-xdpi="96"
   inkscape:export-ydpi="96"
   xmlns:inkscape="http://www.inkscape.org/namespaces/inkscape"
   xmlns:sodipodi="http://sodipodi.sourceforge.net/DTD/sodipodi-0.dtd"
   xmlns="http://www.w3.org/2000/svg"
   xmlns:svg="http://www.w3.org/2000/svg"><sodipodi:namedview
     id="namedview7"
     pagecolor="#ffffff"
     bordercolor="#000000"
     borderopacity="0.25"
     inkscape:showpageshadow="2"
     inkscape:pageopacity="0.0"
     inkscape:pagecheckerboard="0"
     inkscape:deskcolor="#d1d1d1"
     inkscape:document-units="mm"
     showgrid="false"
     inkscape:zoom="1.2804001"
     inkscape:cx="283.50512"
     inkscape:cy="38.65979"
     inkscape:window-width="1366"
     inkscape:window-height="704"
     inkscape:window-x="0"
     inkscape:window-y="0"
     inkscape:window-maximized="1"
     inkscape:current-layer="g252" /><defs
     id="defs2" /><g
     inkscape:label="Layer 1"
     inkscape:groupmode="layer"
     id="layer1"
     transform="translate(-30.704192,-134.869)"><g
       id="g1419"><g
         id="g5519"
         inkscape:export-filename="../a1ab944d/logo.svg"
         inkscape:export-xdpi="16.328571"
         inkscape:export-ydpi="16.328571"><g
           id="g252"><g
             id="g286"><text
               xml:space="preserve"
               style="font-size:22.5778px;fill:#000000;stroke-width:0.264583"
               x="63.636421"
               y="158.77345"
               id="text63"><tspan
                 sodipodi:role="line"
                 id="tspan61"
                 style="font-style:normal;font-variant:normal;font-weight:normal;font-stretch:normal;font-size:22.5778px;font-family:Vincente;-inkscape-font-specification:Vincente;stroke-width:0.264583"
                 x="63.636421"
                 y="158.77345">Taha Mandviwala</tspan></text><g
               id="g244"><g
                 id="g239"><rect
                   style="fill:#111111;fill-opacity:1;stroke-width:0.264583"
                   id="rect325"
                   width="26.710482"
                   height="26.458334"
                   x="34.181499"
                   y="137.63985"
                   ry="2.6458333"
                   rx="2.6458333" /><path
                   d="m 42.939044,142.30545 c 0.778365,-0.60539 1.799574,-0.94202 2.8154,-0.94202 0.59164,0 1.066123,0.20229 1.42509,0.52138 0.139768,0.12422 0.257637,0.26211 0.357208,0.40552 0.09957,-0.14341 0.21744,-0.2813 0.357172,-0.40552 0.358955,-0.31909 0.833522,-0.52138 1.425126,-0.52138 1.01579,0 2.037047,0.33663 2.815436,0.94202 0.623804,0.48519 1.104549,1.15628 1.27565,1.96739 0.389729,0.0305 0.745713,0.19226 1.045139,0.43507 0.454486,0.36847 0.784092,0.92073 0.992977,1.50554 0.324616,0.90894 0.413493,2.06688 0.07509,3.05453 0.08662,0.0401 0.170626,0.0871 0.251898,0.1413 0.32723,0.21813 0.575088,0.52947 0.758784,0.89699 0.359192,0.71828 0.508311,1.72064 0.508311,2.93914 0,1.35609 -0.517223,2.26554 -1.17287,2.82744 -0.409929,0.35147 -0.864296,0.55833 -1.252599,0.65957 -0.118701,0.66313 -0.45104,1.43094 -0.972303,2.08243 -0.678937,0.84873 -1.728235,1.55975 -3.137319,1.55975 -1.117976,0 -2.005441,-0.61822 -2.583381,-1.22361 -0.144128,-0.15102 -0.273523,-0.30572 -0.387115,-0.45733 -0.113568,0.15161 -0.242975,0.30631 -0.387139,0.45733 -0.577856,0.60539 -1.465369,1.22361 -2.583357,1.22361 -1.409049,0 -2.458418,-0.71102 -3.137355,-1.55975 -0.521203,-0.65149 -0.85353,-1.4193 -0.972314,-2.08243 -0.388209,-0.10124 -0.842576,-0.3081 -1.252552,-0.65957 -0.655624,-0.5619 -1.17287,-1.47135 -1.17287,-2.82744 0,-1.2185 0.149178,-2.22086 0.508299,-2.93914 0.183755,-0.36752 0.431601,-0.67886 0.758796,-0.89699 0.08126,-0.0542 0.165337,-0.10119 0.251862,-0.1413 -0.338316,-0.98765 -0.24945,-2.14559 0.07516,-3.05453 0.208862,-0.58481 0.53848,-1.13707 0.99293,-1.50554 0.29945,-0.24281 0.655399,-0.40462 1.045175,-0.43507 0.171018,-0.81111 0.651846,-1.4822 1.275662,-1.96739 z m 4.003599,2.02922 -2.5e-4,-0.0126 c -3.09e-4,-0.0122 -9.62e-4,-0.032 -0.0024,-0.0585 -0.0029,-0.0531 -0.0087,-0.13179 -0.02064,-0.22729 -0.02425,-0.19408 -0.0718,-0.44226 -0.16169,-0.68198 -0.09083,-0.24217 -0.212985,-0.44405 -0.367546,-0.58145 -0.14231,-0.12649 -0.336188,-0.22124 -0.635698,-0.22124 -0.766471,0 -1.527559,0.25747 -2.085918,0.69174 -0.551918,0.42926 -0.884578,1.0099 -0.884578,1.68465 0,0.19097 -0.0918,0.3703 -0.246717,0.48196 -0.154929,0.11167 -0.354083,0.14205 -0.535248,0.0816 -0.222894,-0.0743 -0.423177,-0.0329 -0.635448,0.13921 -0.232483,0.1885 -0.459833,0.52738 -0.622284,0.98225 -0.331863,0.92923 -0.298582,2.05387 0.157627,2.73818 0.06625,0.0994 0.09976,0.21427 0.09977,0.32951 H 41.8928 c 1.476502,0 2.673446,1.19691 2.673446,2.67348 v 0.39852 c 0.692244,0.24465 1.188198,0.90482 1.188198,1.68083 0,0.9843 -0.797958,1.7823 -1.782297,1.7823 -0.984339,0 -1.782298,-0.798 -1.782298,-1.7823 0,-0.77601 0.495954,-1.43618 1.188199,-1.68083 v -0.39852 c 0,-0.82033 -0.664964,-1.48528 -1.485248,-1.48528 h -2.079348 c -0.07323,0 -0.143368,-0.0132 -0.208148,-0.0375 -10e-4,0.002 -0.0021,0.004 -0.0031,0.006 -0.234979,0.46992 -0.38285,1.24985 -0.38285,2.40775 0,1.02031 0.373902,1.59611 0.757952,1.92536 0.412412,0.35349 0.86944,0.45104 1.024346,0.45104 0.328109,0 0.594099,0.26604 0.594099,0.5941 0,0.43773 0.236653,1.20138 0.760958,1.85679 0.509262,0.63652 1.24219,1.1137 2.209538,1.1137 0.66431,0 1.262045,-0.37202 1.723862,-0.85574 0.22615,-0.23692 0.40217,-0.48336 0.51853,-0.68499 0.05829,-0.10112 0.09746,-0.1837 0.12021,-0.24192 0.0067,-0.0171 0.01103,-0.0297 0.01379,-0.0384 v -9.46685 h -1.289611 c -0.244674,0.69224 -0.904861,1.1882 -1.680885,1.1882 -0.984339,0 -1.782298,-0.79796 -1.782298,-1.7823 0,-0.98434 0.797959,-1.7823 1.782298,-1.7823 0.776024,0 1.436211,0.49596 1.680885,1.1882 h 1.289611 z m 1.188198,11.88124 v 1.14946 c 0.0027,0.009 0.0071,0.0213 0.01378,0.0384 0.02281,0.0582 0.06191,0.1408 0.120246,0.24192 0.116325,0.20163 0.292416,0.44807 0.51853,0.68499 0.461734,0.48372 1.059516,0.85574 1.723838,0.85574 0.967312,0 1.700312,-0.47718 2.209574,-1.1137 0.524233,-0.65541 0.760922,-1.41906 0.760922,-1.85679 0,-0.32806 0.266038,-0.5941 0.594099,-0.5941 0.154941,0 0.611922,-0.0976 1.024346,-0.45104 0.384026,-0.32925 0.757952,-0.90505 0.757952,-1.92536 0,-1.1579 -0.147931,-1.93783 -0.382838,-2.40775 -0.113354,-0.22658 -0.236808,-0.36081 -0.355152,-0.43973 -0.114661,-0.0764 -0.257126,-0.12302 -0.450209,-0.12302 -0.219103,0 -0.420384,-0.12059 -0.523757,-0.31376 -0.103374,-0.19318 -0.09209,-0.42758 0.02947,-0.60988 0.456149,-0.68431 0.489419,-1.80895 0.157555,-2.73818 -0.162427,-0.45487 -0.389729,-0.79375 -0.62226,-0.98225 -0.212212,-0.17211 -0.412542,-0.21351 -0.635448,-0.13921 -0.1812,0.0604 -0.380342,0.03 -0.535283,-0.0816 -0.154823,-0.11166 -0.24667,-0.29099 -0.24667,-0.48196 0,-0.67475 -0.332696,-1.25539 -0.884614,-1.68465 -0.558335,-0.43427 -1.319376,-0.69174 -2.085882,-0.69174 -0.299545,0 -0.49334,0.0948 -0.635687,0.22124 -0.154584,0.1374 -0.276731,0.33928 -0.367509,0.58145 -0.08995,0.23972 -0.137475,0.4879 -0.161714,0.68198 -0.012,0.0955 -0.01782,0.17418 -0.02068,0.22729 -0.0014,0.0265 -0.002,0.0463 -0.0024,0.0585 l -2.38e-4,0.0132 v 10.69237 h 0.891149 c 0.820332,0 1.485248,-0.66492 1.485248,-1.48525 v -2.18082 c -0.692244,-0.24465 -1.188198,-0.9048 -1.188198,-1.68082 0,-0.98434 0.797994,-1.7823 1.782297,-1.7823 0.984304,0 1.782298,0.79796 1.782298,1.7823 0,0.77602 -0.495954,1.43617 -1.188199,1.68082 v 2.18082 c 0,1.47646 -1.196991,2.67345 -2.673446,2.67345 z m -4.752793,-8.91149 c 0,0.32811 0.26599,0.5941 0.594099,0.5941 0.328109,0 0.594099,-0.26599 0.594099,-0.5941 0,-0.32811 -0.26599,-0.5941 -0.594099,-0.5941 -0.328109,0 -0.594099,0.26599 -0.594099,0.5941 z m 7.723289,2.97049 c 0.328062,0 0.594099,-0.26599 0.594099,-0.59409 0,-0.32811 -0.266037,-0.5941 -0.594099,-0.5941 -0.328061,0 -0.594099,0.26599 -0.594099,0.5941 0,0.3281 0.266038,0.59409 0.594099,0.59409 z m -7.12919,3.5646 c -0.328109,0 -0.594099,0.26604 -0.594099,0.5941 0,0.32806 0.26599,0.5941 0.594099,0.5941 0.328109,0 0.594099,-0.26604 0.594099,-0.5941 0,-0.32806 -0.26599,-0.5941 -0.594099,-0.5941 z"
                   fill="#212121"
                   id="path294"
                   style="fill:#b5e7ec;fill-opacity:1;stroke-width:1.1882" /></g></g></g></g></g></g></g></svg>
